<svg xmlns="http://www.w3.org/2000/svg" viewBox="0 0 50 50">
  <path d="M41.5 27.5v17H11.48l-3 3H42c1.36 0 2.5-1.14 2.5-2.5V27c0-1.36-1.14-2.5-2.5-2.5H31.48l-3 3zm-21.98-3l-3 3H8.5v8.02l-3 3V27c0-1.36 1.14-2.5 2.5-2.5z" style="line-height:normal;font-variant-ligatures:normal;font-variant-position:normal;font-variant-caps:normal;font-variant-numeric:normal;font-variant-alternates:normal;font-variant-east-asian:normal;font-feature-settings:normal;font-variation-settings:normal;text-indent:0;text-align:start;text-decoration-line:none;text-decoration-style:solid;text-decoration-color:#000;text-transform:none;text-orientation:mixed;white-space:normal;shape-padding:0;shape-margin:0;inline-size:0;isolation:auto;mix-blend-mode:normal;solid-color:#000;solid-opacity:1" color="#000" font-weight="400" font-family="sans-serif" overflow="visible"/>
  <path d="M25 2.5c-6.886 0-12.5 5.614-12.5 12.5v11h3V15c0-5.264 4.236-9.5 9.5-9.5a9.47 9.47 0 018.451 5.158l2.186-2.185C33.433 4.899 29.493 2.5 25 2.5zm12.5 16.07l-3 3V26h3z" style="line-height:normal;font-variant-ligatures:normal;font-variant-position:normal;font-variant-caps:normal;font-variant-numeric:normal;font-variant-alternates:normal;font-variant-east-asian:normal;font-feature-settings:normal;font-variation-settings:normal;text-indent:0;text-align:start;text-decoration-line:none;text-decoration-style:solid;text-decoration-color:#000;text-transform:none;text-orientation:mixed;white-space:normal;shape-padding:0;shape-margin:0;inline-size:0;isolation:auto;mix-blend-mode:normal;solid-color:#000;solid-opacity:1" color="#000" font-weight="400" font-family="sans-serif" overflow="visible" paint-order="fill markers stroke"/>
  <path d="M2 48L48 2" fill="none" stroke="#000" stroke-width="3" stroke-linecap="round"/>
</svg>
