<svg xmlns="http://www.w3.org/2000/svg" viewBox="0 0 297 297">
  <path d="M223.221 177.605l-8.244-57.697c-3.332-21.893-22.877-39.703-43.569-39.703h-2.85c13.339-7.199 22.43-21.339 22.43-37.572C190.987 19.125 171.927 0 148.5 0s-42.487 19.125-42.487 42.632c0 16.233 9.091 30.373 22.43 37.572h-2.848c-20.693 0-40.239 17.811-43.585 39.791l-8.23 57.609a9.65 9.65 0 004.473 9.57l21.874 13.552 10.715 75.114c1.582 11.87 11.711 21.159 23.085 21.159h29.147c11.374 0 21.503-9.288 23.087-21.157l10.712-75.116 21.876-13.552a9.65 9.65 0 004.472-9.569zM148.5 19.305c12.783 0 23.182 10.465 23.182 23.327 0 12.864-10.398 23.329-23.182 23.329-12.783 0-23.182-10.465-23.182-23.329 0-12.862 10.399-23.327 23.182-23.327zm34.37 167.385a9.649 9.649 0 00-4.473 6.843l-11.356 79.633-.016.111c-.335 2.563-2.593 4.418-3.952 4.418h-29.147c-1.358 0-3.616-1.855-3.951-4.418l-.016-.111-11.358-79.633a9.646 9.646 0 00-4.473-6.843l-20.346-12.604 7.325-51.274c1.923-12.632 13.137-23.304 24.487-23.304h45.812c11.35 0 22.563 10.672 24.472 23.216l7.339 51.362-20.347 12.604z"/>
</svg>
